<?xml version="1.0" encoding="UTF-8" standalone="no"?>
<svg
   xmlns:dc="http://purl.org/dc/elements/1.1/"
   xmlns:cc="http://creativecommons.org/ns#"
   xmlns:rdf="http://www.w3.org/1999/02/22-rdf-syntax-ns#"
   xmlns:svg="http://www.w3.org/2000/svg"
   xmlns="http://www.w3.org/2000/svg"
   xmlns:sodipodi="http://sodipodi.sourceforge.net/DTD/sodipodi-0.dtd"
   xmlns:inkscape="http://www.inkscape.org/namespaces/inkscape"
   viewBox="0 0 90 24"
   width="90"
   height="24"
   version="1.1"
   id="svg2034"
   sodipodi:docname="turnes_logo.svg"
   inkscape:version="0.92.4 (5da689c313, 2019-01-14)">
  <metadata
     id="metadata2040">
    <rdf:RDF>
      <cc:Work
         rdf:about="">
        <dc:format>image/svg+xml</dc:format>
        <dc:type
           rdf:resource="http://purl.org/dc/dcmitype/StillImage" />
        <dc:title></dc:title>
      </cc:Work>
    </rdf:RDF>
  </metadata>
  <defs
     id="defs2038" />
  <sodipodi:namedview
     pagecolor="#ffffff"
     bordercolor="#666666"
     borderopacity="1"
     objecttolerance="10"
     gridtolerance="10"
     guidetolerance="10"
     inkscape:pageopacity="0"
     inkscape:pageshadow="2"
     inkscape:window-width="2560"
     inkscape:window-height="1021"
     id="namedview2036"
     showgrid="false"
     inkscape:zoom="17.291667"
     inkscape:cx="54.592772"
     inkscape:cy="11.219277"
     inkscape:window-x="1920"
     inkscape:window-y="28"
     inkscape:window-maximized="1"
     inkscape:current-layer="svg2034" />
  <path
     class="heroicon-ui"
     d="m 20.59,12 -3.3,-3.3 a 1,1 0 1 1 1.42,-1.4 l 4,4 a 1,1 0 0 1 0,1.4 l -4,4 A 1,1 0 0 1 17.29,15.3 Z M 3.4,12 6.7,15.3 a 1,1 0 0 1 -1.42,1.4 l -4,-4 a 1,1 0 0 1 0,-1.4 l 4,-4 A 1,1 0 0 1 6.7,8.7 Z m 7.56,8.24 A 1,1 0 0 1 9.02,19.76 l 4,-16 a 1,1 0 1 1 1.94,0.48 z"
     id="path2032"
     inkscape:connector-curvature="0"
     style="fill:#bf616a;fill-opacity:1" />
  <text
     xml:space="preserve"
     style="font-style:normal;font-weight:normal;font-size:21.33333333px;line-height:1.25;font-family:Bangers;letter-spacing:0px;word-spacing:0px;fill:#bf616a;fill-opacity:1;stroke:none;-inkscape-font-specification:'Bangers, Normal';font-stretch:normal;font-variant:normal;text-anchor:start;text-align:start;writing-mode:lr;font-variant-ligatures:normal;font-variant-caps:normal;font-variant-numeric:normal;font-feature-settings:normal;"
     x="26.775904"
     y="18.737349"
     id="text2044"><tspan
       sodipodi:role="line"
       id="tspan2042"
       x="26.775904"
       y="18.737349"
       style="font-style:normal;font-variant:normal;font-weight:normal;font-stretch:normal;font-size:21.33333333px;font-family:Bangers;-inkscape-font-specification:'Bangers, Normal';font-variant-ligatures:normal;font-variant-caps:normal;font-variant-numeric:normal;font-feature-settings:normal;text-align:start;writing-mode:lr;text-anchor:start;fill:#bf616a;fill-opacity:1;">Turnes</tspan></text>
</svg>
